<svg width="40" height="41" viewBox="0 0 40 41" fill="none" xmlns="http://www.w3.org/2000/svg">
<rect x="0.555556" y="1.05556" width="38.8889" height="38.8889" rx="8.33333" stroke="#0E1025" stroke-opacity="0.1" stroke-width="1.11111"/>
<path fill-rule="evenodd" clip-rule="evenodd" d="M15.2249 9.64795C16.3891 9.64894 17.5053 10.1151 18.3286 10.944C19.1518 11.7729 19.6147 12.8969 19.6157 14.0692V27.7455C19.6157 28.9181 19.1531 30.0426 18.3296 30.8718C17.5062 31.7009 16.3894 32.1667 15.2249 32.1667C14.0603 32.1667 12.9435 31.7009 12.1201 30.8718C11.2966 30.0426 10.834 28.9181 10.834 27.7455V14.0692C10.835 12.8969 11.298 11.7729 12.1212 10.944C12.9444 10.1151 14.0606 9.64894 15.2249 9.64795Z" fill="#FB9678" stroke="#FB9678" stroke-width="1.11111"/>
<path d="M25.114 8.83337H15.4311C12.9629 8.83337 10.9621 10.8481 10.9621 13.3334C10.9621 15.8187 12.9629 17.8334 15.4311 17.8334H25.114C27.5822 17.8334 29.583 15.8187 29.583 13.3334C29.583 10.8481 27.5822 8.83337 25.114 8.83337Z" fill="#03C9D7" stroke="#03C9D7" stroke-width="1.11111"/>
<path d="M24.8931 29.306C27.4962 29.306 29.6064 27.1811 29.6064 24.56C29.6064 21.9388 27.4962 19.814 24.8931 19.814C22.29 19.814 20.1797 21.9388 20.1797 24.56C20.1797 27.1811 22.29 29.306 24.8931 29.306Z" fill="#FEC90F" stroke="#FEC90F" stroke-width="1.11111"/>
</svg>
