<svg width="40" height="41" viewBox="0 0 40 41" fill="none" xmlns="http://www.w3.org/2000/svg">
<rect x="0.416667" y="0.916667" width="39.1667" height="39.1667" rx="6.25" stroke="white" stroke-opacity="0.1" stroke-width="0.833333"/>
<mask id="mask0_11_270" style="mask-type:luminance" maskUnits="userSpaceOnUse" x="7" y="11" width="26" height="20">
<path d="M32.5002 11.3333H7.50017V30.5H32.5002V11.3333Z" fill="white"/>
</mask>
<g mask="url(#mask0_11_270)">
<path d="M7.50034 13.6043C7.50034 15.5626 8.16701 16.5209 10.8337 18.2709C13.792 20.2293 14.167 20.8543 14.167 23.771C14.167 27.8543 15.417 30.271 17.542 30.271C19.0003 30.271 19.167 29.6876 19.167 23.8126L19.1253 17.3543L13.792 14.2293C7.37534 10.4793 7.50034 10.4793 7.50034 13.6043Z" fill="white"/>
<path d="M26.0425 14.2709L20.8758 17.3542L20.8342 23.8126C20.8342 29.6876 21.0008 30.2709 22.4592 30.2709C24.5842 30.2709 25.8342 27.8543 25.8342 23.7709C25.8342 20.8543 26.2092 20.2293 29.1675 18.2709C31.8342 16.5209 32.5008 15.5626 32.5008 13.6042C32.5008 10.4792 32.3758 10.5209 26.0425 14.2709Z" fill="white"/>
</g>
</svg>
