<svg width="30" height="30" viewBox="0 0 30 30" fill="none" xmlns="http://www.w3.org/2000/svg">
<path d="M29.3996 5.07409V10.2024C29.3996 10.8118 29.0776 11.3757 28.5528 11.6854L22.9422 14.9965V9.96942C22.9422 8.68883 21.5941 7.85629 20.4491 8.42976L15.7018 10.8074C15.2005 11.0585 14.6083 11.0498 14.1145 10.7841L9.92035 8.52655C8.78211 7.9139 7.39982 8.72711 7.3824 10.0196L7.3153 14.9965L1.47551 11.7021C0.934341 11.3968 0.599609 10.8232 0.599609 10.2018L0.59961 5.40243C0.59961 4.777 0.938724 4.20023 1.48548 3.89656L6.6604 1.02231C7.13848 0.756772 7.71428 0.734117 8.21175 0.961272L14.1959 3.69376C14.645 3.89879 15.1603 3.90127 15.6113 3.70059L21.8357 0.930609C22.3061 0.721313 22.8453 0.733408 23.3058 0.963579L28.4476 3.53383C29.031 3.82549 29.3996 4.42179 29.3996 5.07409Z" fill="#46BCFA"/>
<path d="M29.3996 24.926V19.7977C29.3996 19.1883 29.0776 18.6244 28.5528 18.3147L22.9422 15.0036V20.0307C22.9422 21.3113 21.5941 22.1438 20.4491 21.5703L15.7018 19.1927C15.2005 18.9416 14.6083 18.9503 14.1145 19.216L9.92035 21.4735C8.78211 22.0862 7.39982 21.273 7.3824 19.9805L7.3153 15.0036L1.47551 18.298C0.934341 18.6033 0.599609 19.1769 0.599609 19.7983L0.59961 24.5977C0.59961 25.2231 0.938724 25.7999 1.48548 26.1035L6.6604 28.9778C7.13848 29.2433 7.71428 29.266 8.21175 29.0388L14.1959 26.3063C14.645 26.1013 15.1603 26.0988 15.6113 26.2995L21.8357 29.0695C22.3061 29.2788 22.8453 29.2667 23.3058 29.0365L28.4476 26.4663C29.031 26.1746 29.3996 25.5783 29.3996 24.926Z" fill="#5E88FE"/>
</svg>
