<svg width="32" height="33" viewBox="0 0 32 33" fill="none" xmlns="http://www.w3.org/2000/svg">
<g clip-path="url(#clip0_8_490)">
<path d="M28.051 0.488391C28.1907 0.488253 28.3304 0.487111 28.4701 0.485934C29.4897 0.481848 30.4095 0.608495 31.1707 1.34641C31.5405 1.74889 31.8079 2.15302 31.9368 2.68747C31.9475 2.72947 31.9582 2.77147 31.9692 2.81475C32.0115 3.07514 32.0107 3.33176 32.012 3.59519C32.0124 3.6533 32.0129 3.71141 32.0133 3.77129C32.0144 3.9595 32.0148 4.1477 32.0149 4.33591C32.015 4.3999 32.015 4.46389 32.015 4.52982C32.0141 5.45026 31.9889 6.34427 31.8118 7.24997C31.8011 7.30863 31.7903 7.3673 31.7793 7.42774C31.07 11.2859 29.2934 15.0245 26.6277 17.9226C26.5067 18.0544 26.3894 18.1886 26.2727 18.3242C26.1006 18.5221 25.919 18.7066 25.732 18.8904C25.6268 18.9974 25.5298 19.1082 25.4329 19.2226C24.9725 19.7559 24.4617 20.2589 23.9241 20.7138C23.754 20.8632 23.5975 21.0253 23.4402 21.188C23.3118 21.3125 23.3118 21.3125 23.119 21.4187C22.9685 21.545 22.9387 21.6145 22.9026 21.8107C22.8903 22.0574 22.8898 22.3027 22.8931 22.5495C22.8929 22.6415 22.8924 22.7334 22.8918 22.8254C22.8906 23.0673 22.8915 23.3092 22.893 23.5512C22.8951 23.9372 22.8948 24.3233 22.8932 24.7093C22.8931 24.8433 22.8942 24.9772 22.8954 25.1112C22.8975 25.7376 22.8405 26.2825 22.4563 26.7968C22.4174 26.8507 22.3785 26.9045 22.3384 26.9599C21.8703 27.4694 21.2451 27.7381 20.635 28.0403C20.5326 28.0914 20.4303 28.1425 20.3279 28.1937C20.1143 28.3004 19.9006 28.4068 19.6868 28.5128C19.4128 28.6488 19.1391 28.7854 18.8655 28.9222C18.6546 29.0277 18.4435 29.1329 18.2324 29.238C18.1314 29.2883 18.0304 29.3386 17.9295 29.3891C17.7887 29.4593 17.6478 29.5292 17.5068 29.599C17.4652 29.6199 17.4237 29.6407 17.3808 29.6621C17.0037 29.848 16.6697 29.9357 16.2493 29.875C15.8978 29.7317 15.6812 29.5221 15.4993 29.1875C15.4383 29.0044 15.4292 28.8881 15.4297 28.6976C15.4297 28.6363 15.4297 28.575 15.4297 28.5118C15.43 28.4458 15.4304 28.3798 15.4307 28.3117C15.4308 28.2102 15.4308 28.2102 15.431 28.1066C15.4313 27.89 15.4321 27.6735 15.4329 27.457C15.4332 27.3103 15.4335 27.1636 15.4337 27.0169C15.4344 26.6571 15.4355 26.2973 15.4368 25.9375C15.3992 25.9463 15.3617 25.9551 15.323 25.9642C15.2732 25.9756 15.2233 25.987 15.172 25.9988C15.1228 26.0102 15.0737 26.0216 15.023 26.0333C14.7984 26.0774 14.5792 26.0838 14.3509 26.082C14.3048 26.0817 14.2588 26.0814 14.2113 26.0811C13.8267 26.0729 13.4847 26.0143 13.1243 25.875C13.0741 25.8566 13.0239 25.8382 12.9722 25.8193C12.6459 25.6794 12.3942 25.4812 12.1377 25.2394C12.1028 25.2068 12.0678 25.1742 12.0318 25.1406C11.5628 24.6999 11.1077 24.2449 10.6521 23.7905C10.6045 23.743 10.5568 23.6955 10.5077 23.6466C10.2562 23.396 10.0048 23.1452 9.75362 22.8943C9.4958 22.6368 9.2374 22.3799 8.97886 22.1232C8.77833 21.9238 8.57822 21.724 8.37822 21.5241C8.28314 21.4292 8.18791 21.3345 8.09252 21.2399C7.1894 20.3441 6.45534 19.5244 6.42116 18.1914C6.42725 17.9494 6.45898 17.7186 6.50026 17.4802C6.51173 17.4134 6.52319 17.3467 6.53499 17.2779C6.54384 17.2274 6.55268 17.177 6.56179 17.125C6.52375 17.1249 6.48571 17.1248 6.44652 17.1247C6.04902 17.1235 5.65158 17.1201 5.25411 17.1154C5.10596 17.114 4.95781 17.1131 4.80965 17.1127C4.59613 17.1122 4.38271 17.1096 4.16921 17.1067C4.07055 17.107 4.07055 17.107 3.96989 17.1074C3.54854 17.0991 3.2614 17.0267 2.93679 16.75C2.7066 16.4844 2.60952 16.2261 2.62429 15.875C2.73176 15.2967 3.0319 14.7722 3.29323 14.2517C3.34099 14.1558 3.38871 14.06 3.43642 13.9641C3.53611 13.7641 3.63618 13.5642 3.7365 13.3645C3.86425 13.1101 3.99098 12.8552 4.11743 12.6001C4.21565 12.4023 4.31445 12.2047 4.41343 12.0073C4.46036 11.9135 4.50711 11.8196 4.55365 11.7256C5.00071 10.8239 5.43495 10.1124 6.40603 9.73508C6.71661 9.64015 7.01413 9.61775 7.33762 9.62206C7.41586 9.62283 7.4941 9.6236 7.57471 9.62439C7.61606 9.62489 7.65742 9.62538 7.70003 9.62589C7.96769 9.62855 8.23538 9.62778 8.50305 9.62778C8.7374 9.62796 8.97165 9.62926 9.20597 9.63289C9.4338 9.63636 9.66145 9.63674 9.88929 9.6351C9.97553 9.63502 10.0618 9.63604 10.148 9.63822C10.6635 9.65223 10.6635 9.65223 11.1104 9.4274C11.2525 9.27033 11.3762 9.10963 11.4993 8.93747C11.576 8.85167 11.6539 8.76679 11.7334 8.68357C11.771 8.64339 11.8085 8.60322 11.8472 8.56183C12.2566 8.12644 12.6711 7.69675 13.093 7.27341C13.1386 7.22757 13.1841 7.18173 13.2311 7.13449C13.4828 6.88354 13.7406 6.64388 14.0098 6.41187C14.1691 6.27353 14.3221 6.12878 14.4759 5.98435C18.0847 2.64986 23.1185 0.487849 28.051 0.488391ZM19.8115 6.27976C19.0254 7.27364 18.7756 8.4472 18.8743 9.68747C18.993 10.593 19.3901 11.4457 19.9993 12.125C20.0417 12.1724 20.084 12.2199 20.1277 12.2688C20.9854 13.1768 22.141 13.625 23.3704 13.7031C24.6838 13.6783 25.7732 13.1785 26.7195 12.2893C27.552 11.4241 27.9668 10.2961 28.0188 9.10544C27.9809 7.81253 27.457 6.66222 26.5391 5.7602C25.5685 4.84588 24.3801 4.50454 23.0718 4.54099C21.7629 4.60827 20.6519 5.30612 19.8115 6.27976Z" fill="white"/>
<path d="M8.06179 24C8.91469 24.6981 9.44612 25.8033 9.58718 26.8816C9.70606 28.0771 9.44491 29.2958 8.68679 30.25C7.70119 31.398 6.38638 31.979 4.93679 32.3125C4.87257 32.3274 4.87257 32.3274 4.80706 32.3427C4.29682 32.4557 4.29682 32.4557 4.06179 32.4375C3.7505 32.1862 3.63285 31.9474 3.56179 31.5625C3.54417 31.3324 3.5348 31.102 3.5339 30.8712C3.52882 30.6522 3.51678 30.5238 3.38528 30.3449C3.2475 30.2337 3.2475 30.2337 3.03835 30.2187C2.66704 30.3724 2.58885 30.7075 2.43679 31.0625C2.13697 31.7303 1.87794 32.1114 1.19045 32.3908C0.872867 32.5059 0.584422 32.5162 0.249289 32.5C0.0617888 32.375 0.0617888 32.375 -0.000711165 32.1875C-0.00708017 32.0877 -0.00998517 31.9877 -0.010782 31.8877C-0.0116827 31.7962 -0.0116827 31.7962 -0.0126016 31.7028C-0.0128672 31.6366 -0.0131328 31.5704 -0.0134065 31.5022C-0.0137627 31.4333 -0.014119 31.3644 -0.014486 31.2934C-0.0150774 31.1467 -0.0154853 31.0001 -0.0157258 30.8534C-0.0163238 30.6334 -0.0182583 30.4135 -0.0202424 30.1935C-0.0253977 29.1109 0.0425622 28.0571 0.358664 27.0156C0.374666 26.9616 0.390669 26.9076 0.407156 26.852C0.656268 26.0387 0.986636 25.3088 1.49929 24.625C1.53313 24.5796 1.56696 24.5343 1.60183 24.4875C3.21632 22.4929 6.14294 22.5103 8.06179 24Z" fill="white"/>
</g>
<defs>
<clipPath id="clip0_8_490">
<rect width="32" height="32" fill="white" transform="translate(0 0.5)"/>
</clipPath>
</defs>
</svg>
